<svg xmlns="http://www.w3.org/2000/svg" width="800" height="280" viewBox="0 0 800 280" font-family="'Hiragino Sans','Noto Sans JP','Yu Gothic','Segoe UI',sans-serif">
<defs><marker id="aR" viewBox="0 0 10 10" refX="9" refY="5" markerWidth="7" markerHeight="7" orient="auto-start-reverse"><path d="M0 1 L9 5 L0 9 z" fill="#475569"/></marker><marker id="aRsub" viewBox="0 0 10 10" refX="9" refY="5" markerWidth="7" markerHeight="7" orient="auto-start-reverse"><path d="M0 1 L9 5 L0 9 z" fill="#94a3b8"/></marker></defs>
<rect x="0" y="0" width="800" height="280" fill="#ffffff"/>
<text x="400" y="38" text-anchor="middle" font-size="21" fill="#0f172a" font-weight="700">文字で書いた配置が、そのまま座席表になる</text>
<svg x="104.0" y="104.3" width="92.0" height="92.0" viewBox="0 0 36 36"><path fill="#CCD6DD" d="M31 32c0 2.209-1.791 4-4 4H5c-2.209 0-4-1.791-4-4V4c0-2.209 1.791-4 4-4h22c2.209 0 4 1.791 4 4v28z"/><path fill="#99AAB5" d="M27 24c0 .553-.447 1-1 1H6c-.552 0-1-.447-1-1 0-.553.448-1 1-1h20c.553 0 1 .447 1 1zm-16 4c0 .553-.448 1-1 1H6c-.552 0-1-.447-1-1 0-.553.448-1 1-1h4c.552 0 1 .447 1 1zM27 8c0 .552-.447 1-1 1H6c-.552 0-1-.448-1-1s.448-1 1-1h20c.553 0 1 .448 1 1zm0 4c0 .553-.447 1-1 1H6c-.552 0-1-.447-1-1 0-.553.448-1 1-1h20c.553 0 1 .447 1 1zm0 4c0 .553-.447 1-1 1H6c-.552 0-1-.447-1-1 0-.553.448-1 1-1h20c.553 0 1 .447 1 1zm0 4c0 .553-.447 1-1 1H6c-.552 0-1-.447-1-1 0-.553.448-1 1-1h20c.553 0 1 .447 1 1z"/><path fill="#66757F" d="M31 6.272c-.827-.535-1.837-.579-2.521-.023l-.792.646-1.484 1.211-.1.08-2.376 1.938-11.878 9.686c-.437.357-.793 1.219-1.173 2.074-.378.85-.969 2.852-1.443 4.391-.148.25-1.065 1.846-.551 2.453.52.615 2.326.01 2.568-.076 1.626-.174 3.731-.373 4.648-.58.924-.211 1.854-.395 2.291-.752.008-.006.01-.018.017-.023l11.858-9.666.792-.646.144-.118V6.272z"/><path fill="#D99E82" d="M18.145 22.526s-1.274-1.881-2.117-2.553c-.672-.843-2.549-2.116-2.549-2.116-.448-.446-1.191-.48-1.629-.043-.437.438-.793 1.366-1.173 2.291-.472 1.146-1.276 4.154-1.768 5.752-.083.272.517-.45.503-.21-.01.187.027.394.074.581l-.146.159.208.067c.025.082.05.154.068.21l.159-.146c.187.047.394.084.58.074.24-.014-.483.587-.21.503 1.598-.493 4.607-1.296 5.752-1.768.924-.381 1.854-.736 2.291-1.174.439-.435.406-1.178-.043-1.627z"/><path fill="#EA596E" d="M25.312 4.351c-.876.875-.876 2.293 0 3.168l3.167 3.168c.876.874 2.294.874 3.168 0l3.169-3.168c.874-.875.874-2.293 0-3.168l-3.169-3.168c-.874-.875-2.292-.875-3.168 0l-3.167 3.168z"/><path fill="#FFCC4D" d="M11.849 17.815l3.17 3.17 3.165 3.166 11.881-11.879-6.337-6.336-11.879 11.879z"/><path fill="#292F33" d="M11.298 26.742s-2.06 1.133-2.616.576c-.557-.558.581-2.611.581-2.611s1.951.036 2.035 2.035z"/><path fill="#CCD6DD" d="M23.728 5.935l3.96-3.96 6.336 6.337-3.96 3.96z"/><path fill="#99AAB5" d="M26.103 3.558l.792-.792 6.336 6.335-.792.792zM24.52 5.142l.791-.791 6.336 6.335-.792.792z"/></svg>
<text x="150" y="223.14" text-anchor="middle" font-size="21" fill="#0f172a" font-weight="700">マップの文字</text>
<rect x="325" y="130" width="150" height="70" rx="16" fill="#dcfce7" stroke="#22c55e" stroke-width="3.5"/>
<svg x="379.4" y="138.0" width="41.3" height="41.3" viewBox="0 0 36 36"><path fill="#66757F" d="M34 15h-3.362c-.324-1.369-.864-2.651-1.582-3.814l2.379-2.379c.781-.781.781-2.048 0-2.829l-1.414-1.414c-.781-.781-2.047-.781-2.828 0l-2.379 2.379C23.65 6.225 22.369 5.686 21 5.362V2c0-1.104-.896-2-2-2h-2c-1.104 0-2 .896-2 2v3.362c-1.369.324-2.651.864-3.814 1.582L8.808 4.565c-.781-.781-2.048-.781-2.828 0L4.565 5.979c-.781.781-.781 2.048-.001 2.829l2.379 2.379C6.225 12.35 5.686 13.632 5.362 15H2c-1.104 0-2 .896-2 2v2c0 1.104.896 2 2 2h3.362c.324 1.368.864 2.65 1.582 3.813l-2.379 2.379c-.78.78-.78 2.048.001 2.829l1.414 1.414c.78.78 2.047.78 2.828 0l2.379-2.379c1.163.719 2.445 1.258 3.814 1.582V34c0 1.104.896 2 2 2h2c1.104 0 2-.896 2-2v-3.362c1.368-.324 2.65-.864 3.813-1.582l2.379 2.379c.781.781 2.047.781 2.828 0l1.414-1.414c.781-.781.781-2.048 0-2.829l-2.379-2.379c.719-1.163 1.258-2.445 1.582-3.814H34c1.104 0 2-.896 2-2v-2C36 15.896 35.104 15 34 15zM18 26c-4.418 0-8-3.582-8-8s3.582-8 8-8 8 3.582 8 8-3.582 8-8 8z"/></svg>
<text x="400" y="192.02" text-anchor="middle" font-size="17" fill="#15803d" font-weight="600">作る</text>
<svg x="604.0" y="104.3" width="92.0" height="92.0" viewBox="0 0 36 36"><path fill="#A4523A" d="M12 20c-1.1 0-2 .9-2 2v10c0 1.1.9 2 2 2s2-.9 2-2V22c0-1.1-.9-2-2-2zm18 0c-1.1 0-2 .9-2 2v10c0 1.1.9 2 2 2s2-.9 2-2V22c0-1.1-.9-2-2-2z"/><path fill="#C1694F" d="M13 2h16v8H13z"/><path fill="#C1694F" d="M16 9h2v13h-2zm4 0h2v13h-2zm4 0h2v13h-2zM7 23c-1.1 0-2 .9-2 2v9c0 1.1.9 2 2 2s2-.9 2-2v-9c0-1.1-.9-2-2-2z"/><path fill="#C1694F" d="M25 21c-1.1 0-2 .9-2 2v11c0 1.1.9 2 2 2s2-.9 2-2V23c0-1.1-.9-2-2-2zM12 0c-1.1 0-2 .9-2 2v20h4V2c0-1.1-.9-2-2-2zm18 0c-1.1 0-2 .9-2 2v20h4V2c0-1.1-.9-2-2-2z"/><path fill="#A4523A" d="M14 2h1v8h-1zm14 8h-1V2h1z"/><path fill="#D99E82" d="M30.769 20H10.341c-.223 0-.442.061-.633.175l-5.954 3.041s22.726 2.418 24.726 2.418l3.029-2.265c.309-.232.491-.597.491-.985v-1.153c0-.68-.551-1.231-1.231-1.231z"/><path fill="#A4523A" d="M16 10h2v1h-2zM5 26h4v1H5zm18 0h4v1h-4zm-3-16h2v1h-2zm4 0h2v1h-2z"/><path fill="#C1694F" d="M27.44 26H4.56C3.698 26 3 25.328 3 24.5S3.698 23 4.56 23h22.88c.862 0 1.56.672 1.56 1.5s-.698 1.5-1.56 1.5z"/></svg>
<text x="650" y="223.14" text-anchor="middle" font-size="21" fill="#0f172a" font-weight="700">座席表</text>
<path d="M221.52 165.00 L244.58 165.00" fill="none" stroke="#475569" stroke-width="3.5" stroke-linecap="round" stroke-linejoin="round"/>
<path d="M295.94 165.00 L319.00 165.00" fill="none" stroke="#475569" stroke-width="3.5" stroke-linecap="round" stroke-linejoin="round" marker-end="url(#aR)"/>
<text x="270.26" y="170.95" text-anchor="middle" font-size="17" fill="#0f172a" font-weight="600">読む</text>
<path d="M481.00 165.00 L504.98 165.00" fill="none" stroke="#475569" stroke-width="3.5" stroke-linecap="round" stroke-linejoin="round"/>
<path d="M574.02 165.00 L598.00 165.00" fill="none" stroke="#475569" stroke-width="3.5" stroke-linecap="round" stroke-linejoin="round" marker-end="url(#aR)"/>
<text x="539.5" y="170.95" text-anchor="middle" font-size="17" fill="#0f172a" font-weight="600">並べる</text>
</svg>
