<svg xmlns="http://www.w3.org/2000/svg" width="880" height="330" viewBox="0 0 880 330" font-family="'Hiragino Sans','Noto Sans JP','Yu Gothic','Segoe UI',sans-serif">
<defs><marker id="aR" viewBox="0 0 10 10" refX="9" refY="5" markerWidth="7" markerHeight="7" orient="auto-start-reverse"><path d="M0 1 L9 5 L0 9 z" fill="#475569"/></marker><marker id="aRsub" viewBox="0 0 10 10" refX="9" refY="5" markerWidth="7" markerHeight="7" orient="auto-start-reverse"><path d="M0 1 L9 5 L0 9 z" fill="#94a3b8"/></marker></defs>
<rect x="0" y="0" width="880" height="330" fill="#ffffff"/>
<text x="440" y="36" text-anchor="middle" font-size="21" fill="#0f172a" font-weight="700">迷ったら、この 3 つを自分に聞く</text>
<rect x="45" y="100" width="230" height="90" rx="16" fill="#fef9c3" stroke="#f59e0b" stroke-width="3.5"/>
<text x="160" y="150.25" text-anchor="middle" font-size="15" fill="#b45309" font-weight="400"><tspan x="160" dy="0">自社サイトに</tspan><tspan x="160" dy="21.75">載っていても平気か</tspan></text>
<rect x="325" y="100" width="230" height="90" rx="16" fill="#fef9c3" stroke="#f59e0b" stroke-width="3.5"/>
<text x="440" y="150.25" text-anchor="middle" font-size="15" fill="#b45309" font-weight="400"><tspan x="440" dy="0">他社に見られて</tspan><tspan x="440" dy="21.75">困る人がいるか</tspan></text>
<rect x="605" y="100" width="230" height="90" rx="16" fill="#fef9c3" stroke="#f59e0b" stroke-width="3.5"/>
<text x="720" y="150.25" text-anchor="middle" font-size="15" fill="#b45309" font-weight="400"><tspan x="720" dy="0">上司に説明</tspan><tspan x="720" dy="21.75">できるか</tspan></text>
<rect x="175" y="235" width="210" height="66" rx="16" fill="#dcfce7" stroke="#22c55e" stroke-width="3.5"/>
<svg x="260.5" y="242.5" width="38.9" height="38.9" viewBox="0 0 36 36"><path fill="#77B255" d="M36 32c0 2.209-1.791 4-4 4H4c-2.209 0-4-1.791-4-4V4c0-2.209 1.791-4 4-4h28c2.209 0 4 1.791 4 4v28z"/><path fill="#FFF" d="M29.28 6.362c-1.156-.751-2.704-.422-3.458.736L14.936 23.877l-5.029-4.65c-1.014-.938-2.596-.875-3.533.138-.937 1.014-.875 2.596.139 3.533l7.209 6.666c.48.445 1.09.665 1.696.665.673 0 1.534-.282 2.099-1.139.332-.506 12.5-19.27 12.5-19.27.751-1.159.421-2.707-.737-3.458z"/></svg>
<text x="280" y="293.476" text-anchor="middle" font-size="17" fill="#15803d" font-weight="600">渡してよい</text>
<rect x="505" y="235" width="210" height="66" rx="16" fill="#fee2e2" stroke="#ef4444" stroke-width="3.5"/>
<svg x="590.5" y="242.5" width="38.9" height="38.9" viewBox="0 0 36 36"><path fill="#BE1931" d="M36 18c0 9.941-8.059 18-18 18S0 27.941 0 18 8.059 0 18 0s18 8.059 18 18z"/><path fill="#FFF" d="M32 20c0 1.104-.896 2-2 2H6c-1.104 0-2-.896-2-2v-4c0-1.104.896-2 2-2h24c1.104 0 2 .896 2 2v4z"/></svg>
<text x="610" y="293.476" text-anchor="middle" font-size="17" fill="#b91c1c" font-weight="600">渡さない</text>
<path d="M208.09 194.29 L243.61 230.71" fill="none" stroke="#94a3b8" stroke-width="2.0" stroke-linecap="round" stroke-linejoin="round" marker-end="url(#aRsub)"/>
<path d="M507.06 193.52 L559.53 231.48" fill="none" stroke="#94a3b8" stroke-width="2.0" stroke-linecap="round" stroke-linejoin="round" marker-end="url(#aRsub)"/>
<path d="M675.76 194.47 L643.51 230.53" fill="none" stroke="#94a3b8" stroke-width="2.0" stroke-linecap="round" stroke-linejoin="round" marker-end="url(#aRsub)"/>
</svg>
