<svg xmlns="http://www.w3.org/2000/svg" width="880" height="330" viewBox="0 0 880 330" font-family="'Hiragino Sans','Noto Sans JP','Yu Gothic','Segoe UI',sans-serif">
<defs><marker id="aR" viewBox="0 0 10 10" refX="9" refY="5" markerWidth="7" markerHeight="7" orient="auto-start-reverse"><path d="M0 1 L9 5 L0 9 z" fill="#475569"/></marker><marker id="aRsub" viewBox="0 0 10 10" refX="9" refY="5" markerWidth="7" markerHeight="7" orient="auto-start-reverse"><path d="M0 1 L9 5 L0 9 z" fill="#94a3b8"/></marker></defs>
<rect x="0" y="0" width="880" height="330" fill="#ffffff"/>
<text x="440" y="36" text-anchor="middle" font-size="21" fill="#0f172a" font-weight="700">業務ツールは、だいたいこの形をしている</text>
<polygon points="86,108 250,108 214,192 50,192" fill="#dbeafe" stroke="#3b82f6" stroke-width="3.5"/>
<text x="150" y="157.35" text-anchor="middle" font-size="21" fill="#1d4ed8" font-weight="700">入力</text>
<polygon points="389.6,108 490.4,108 530,150 490.4,192 389.6,192 350,150" fill="#dcfce7" stroke="#22c55e" stroke-width="3.5"/>
<text x="440" y="157.35" text-anchor="middle" font-size="21" fill="#15803d" font-weight="700">処理</text>
<polygon points="666,108 830,108 794,192 630,192" fill="#dbeafe" stroke="#3b82f6" stroke-width="3.5"/>
<text x="730" y="157.35" text-anchor="middle" font-size="21" fill="#1d4ed8" font-weight="700">出力</text>
<path d="M238.00 150.00 L344.00 150.00" fill="none" stroke="#475569" stroke-width="3.5" stroke-linecap="round" stroke-linejoin="round" marker-end="url(#aR)"/>
<path d="M536.00 150.00 L642.00 150.00" fill="none" stroke="#475569" stroke-width="3.5" stroke-linecap="round" stroke-linejoin="round" marker-end="url(#aR)"/>
<text x="150" y="228" text-anchor="middle" font-size="13" fill="#475569" font-weight="400">データや条件を受け取る</text>
<text x="440" y="228" text-anchor="middle" font-size="13" fill="#475569" font-weight="400">ルールどおりに扱う</text>
<text x="730" y="228" text-anchor="middle" font-size="13" fill="#475569" font-weight="400">見せる・保存する</text>
<rect x="60" y="258" width="760" height="46" rx="16" fill="#f1f5f9" stroke="#94a3b8" stroke-width="3.5"/>
<text x="440" y="288" text-anchor="middle" font-size="15" fill="#475569" font-weight="400">自分の業務も、この 3 つで言い直せるならツールにできる</text>
</svg>
